/* XPM */
static const char *file_open_xpm[] = {
/* width height num_colors chars_per_pixel */
"    16    16      256            2",
/* colors */
"`` c None",
"`. c #ffff9f",
"`# c #f1e284",
"`a c #f2e18c",
"`b c #f2d888",
"`c c #f5d686",
"`d c #f6d888",
"`e c #f5d98b",
"`f c #f2d98d",
"`g c #f0d890",
"`h c #edd792",
"`i c #e7d595",
"`j c #dccd91",
"`k c #e2d498",
"`l c #cfb56c",
"`m c #ffff73",
"`n c #f6e77a",
"`o c #fbf084",
"`p c #faeb89",
"`q c #f8de82",
"`r c #fcd67a",
"`s c #fed679",
"`t c #fed77b",
"`u c #fdd77d",
"`v c #fcd87f",
"`w c #fbd982",
"`x c #f4d98d",
"`y c #fff28c",
"`z c #f7ba7f",
"`A c #ffff70",
"`B c #f4e579",
"`C c #fbef82",
"`D c #faf08a",
"`E c #f6da80",
"`F c #ffd474",
"`G c #ffd575",
"`H c #ffd575",
"`I c #ffd575",
"`J c #ffd676",
"`K c #f2d682",
"`L c #c8e42e",
"`M c #18980c",
"`N c #059503",
"`O c #ffff6d",
"`P c #f3e378",
"`Q c #f9ec81",
"`R c #ffd677",
"`S c #c4c868",
"`T c #099a05",
"`U c #008f00",
"`V c #049302",
"`W c #028b01",
"`X c #ffff6a",
"`Y c #f1e177",
"`Z c #f7e980",
"`0 c #ffd576",
"`1 c #e6d07a",
"`2 c #059b04",
"`3 c #039802",
"`4 c #04a503",
"`5 c #058401",
"`6 c #ffff66",
"`7 c #f0de76",
"`8 c #f5e67f",
".` c #f4d674",
".. c #f4d181",
".# c #109f13",
".a c #079a06",
".b c #008e00",
".c c #019000",
".d c #fff963",
".e c #eedb75",
".f c #f3e37e",
".g c #a7d566",
".h c #dfcb76",
".i c #46bb3e",
".j c #10a00f",
".k c #009100",
".l c #009400",
".m c #ffef61",
".n c #ecd974",
".o c #f0e07c",
".p c #70c23b",
".q c #cad172",
".r c #59c94b",
".s c #0a9e09",
".t c #009300",
".u c #009600",
".v c #fce55d",
".w c #ead673",
".x c #eedc7b",
".y c #57be30",
".z c #6fc950",
".A c #24ac1c",
".B c #009800",
".C c #009200",
".D c #009400",
".E c #f6da58",
".F c #e8d372",
".G c #ecd879",
".H c #4abd25",
".I c #2fb018",
".J c #10a107",
".K c #019700",
".L c #018f00",
".M c #019000",
".N c #eed051",
".O c #e6d071",
".P c #e9d578",
".Q c #2eb016",
".R c #10a008",
".S c #029501",
".T c #09fe06",
".U c #038701",
".V c #e7c54c",
".W c #e4cd70",
".X c #e7d176",
".Y c #e9d47b",
".Z c #4bb125",
".0 c #5fac32",
".1 c #078c07",
".2 c #098205",
".3 c #028e01",
".4 c #e7c252",
".5 c #e1c96e",
".6 c #e5ce75",
".7 c #e6d07a",
".8 c #d6c074",
"#` c #b0975a",
"#. c #ccae66",
"## c #dcbc6d",
"#a c #a4be51",
"#b c #5ec42f",
"#c c #c3bc60",
"#d c #dcbd74",
"#e c #000000",
"#f c #000000",
"#g c #000000",
"#h c #d7bb64",
"#i c #d6bd69",
"#j c #dfc873",
"#k c #e4cc78",
"#l c #d3bd72",
"#m c #9d8751",
"#n c #c1a562",
"#o c #d6b66c",
"#p c #d6b76c",
"#q c #9ab94d",
"#r c #69b834",
"#s c #d1ba69",
"#t c #c8ad6b",
"#u c #000000",
"#v c #000000",
"#w c #000000",
"#x c #b8a161",
"#y c #ffff90",
"#z c #d3bb6e",
"#A c #ddc574",
"#B c #d0ba71",
"#C c #4f462c",
"#D c #a99156",
"#E c #caad67",
"#F c #ceaf69",
"#G c #ccb168",
"#H c #adb158",
"#I c #c2ab64",
"#J c #a18c56",
"#K c #000000",
"#L c #070603",
"#M c #000000",
"#N c #bca360",
"#O c #b69c5c",
"#P c #ebd37c",
"#Q c #d1b76d",
"#R c #cdb66f",
"#S c #746943",
"#T c #ae965b",
"#U c #d2b46b",
"#V c #6d613a",
"#W c #c2a463",
"#X c #cfac6b",
"#Y c #998551",
"#Z c #221d11",
"#0 c #000000",
"#1 c #000000",
"#2 c #000000",
"#3 c #fcf288",
"#4 c #faef87",
"#5 c #f9ee88",
"#6 c #f2d77e",
"#7 c #fbd173",
"#8 c #ffd575",
"a` c #ffd575",
"a. c #ffd575",
"a# c #f8ec86",
"aa c #f7eb87",
"ab c #eed47c",
"ac c #f5cc70",
"ad c #fdd374",
"ae c #ffd575",
"af c #ffd575",
"ag c #f6e985",
"ah c #f5e885",
"ai c #ead07a",
"aj c #f0c86e",
"ak c #fbd273",
"al c #ffd575",
"am c #ffd574",
"an c #f4e683",
"ao c #f3e584",
"ap c #e6cc78",
"aq c #eac36c",
"ar c #f9d073",
"as c #ffd474",
"at c #e1db78",
"au c #f2e282",
"av c #f1e282",
"aw c #e2c876",
"ax c #e3bd69",
"ay c #f5cd71",
"az c #e4da7e",
"aA c #95da6c",
"aB c #efdf80",
"aC c #efde81",
"aD c #ddc474",
"aE c #dab765",
"aF c #dbd27c",
"aG c #a1dd75",
"aH c #61c835",
"aI c #eddb7e",
"aJ c #e9d77e",
"aK c #d3b86c",
"aL c #c6bf70",
"aM c #9fdb75",
"aN c #6bcd3a",
"aO c #5dc62d",
"aP c #ebd87d",
"aQ c #deca79",
"aR c #c4a661",
"aS c #b6bd64",
"aT c #71cc3e",
"aU c #65cb31",
"aV c #5ec62e",
"aW c #4abd24",
"aX c #dac576",
"aY c #ba9e5d",
"aZ c #d2b466",
"a0 c #a9c252",
"a1 c #69c934",
"a2 c #5dc72e",
"a3 c #4abc24",
"a4 c #5dbb2e",
"a5 c #ffffff",
"a6 c #000000",
"a7 c #000000",
"a8 c #000000",
/* pixels */
"`.`#`a`b`c`d`e`f`g`h`i`j`k`l````",
"`m`n`o`p`q`r`s`t`u`v`w`x`y`z````",
"`A`B`C#3`D`E`F`G`H`I`J`K`L`M`N``",
"`O`P`Q#4#5#6#7#8a`a.`R`S`T`U`V`W",
"`X`Y`Za#aaabacadaeaf`0`1`2`3`4`5",
"`6`7`8agahaiajakalam.`...#.a.b.c",
".d.e.fanaoapaqarasat.g.h.i.j.k.l",
".m.n.oauavawaxayazaA.p.q.r.s.t.u",
".v.w.xaBaCaDaEaFaGaH.y.z.A.B.C.D",
".E.F.GaIaJaKaLaMaNaO.H.I.J.K.L.M",
".N.O.PaPaQaRaSaTaUaVaW.Q.R.S.T.U",
".V.W.X.YaXaYaZa0a1a2a3.Z.0.1.2.3",
".4.5.6.7.8#`#.###a#ba4#c#d#e#f#g",
"#h#i#j#k#l#m#n#o#p#q#r#s#t#u#v#w",
"#x#y#z#A#B#C#D#E#F#G#H#I#J#K#L#M",
"#N#O#P#Q#R#S#T#U#V#W#X#Y#Z#0#1#2"
};
